<svg width="24" height="24" viewBox="0 0 24 24" fill="none" xmlns="http://www.w3.org/2000/svg">
<g clip-path="url(#clip0_161_1210)">
<path d="M16.72 1C16.46 3.91 19.01 6.14 21.77 6.27V9.9C19.96 10.03 18.25 9.36 16.72 8.45V16.53C16.72 17.59 15.63 19.7 14.91 20.52C10.53 25.51 2.51003 21.84 3.02003 15.26C3.33003 11.37 6.98003 8.59 10.77 8.99V12.8C9.36003 12.69 8.11003 12.85 7.27003 14.08C4.97003 17.44 9.64003 20.76 12.11 18.05C12.32 17.82 12.94 16.55 12.94 16.34V1H16.73H16.72Z" fill="#FF4B00"/>
</g>
<defs>
<clipPath id="clip0_161_1210">
<rect width="18.77" height="21.84" fill="white" transform="translate(3 1)"/>
</clipPath>
</defs>
</svg>
