<svg width="24" height="24" viewBox="0 0 24 24" fill="none" xmlns="http://www.w3.org/2000/svg">
<g clip-path="url(#clip0_161_1209)">
<path d="M7.22013 2.17382C9.10345 1.94864 15.6746 1.9077 17.3941 2.29665C19.3389 2.74701 21.1505 4.46656 21.6521 6.41128C22.0922 8.10013 22.0512 14.6406 21.8465 16.5546C21.5395 19.4921 19.0523 21.6416 16.1761 21.877C14.0881 22.051 7.95708 22.1226 6.14542 21.5392C3.85268 20.8023 2.2969 18.571 2.11266 16.1963C1.96937 14.1595 1.87725 8.21272 2.35831 6.43176C2.95197 4.24138 4.95811 2.43994 7.22013 2.17382ZM7.22013 4.03667C5.562 4.41538 4.37469 5.68457 4.03692 7.35294C4.51798 11.0786 2.05125 19.441 7.69096 20.0039C9.74828 20.2086 14.2519 20.2086 16.3092 20.0039C18.1106 19.8299 19.8097 18.2639 19.9939 16.442C20.2089 14.3437 20.1986 9.67638 19.9939 7.56789C19.8302 5.88928 18.3767 4.22091 16.6674 4.0162C13.7503 3.66819 10.1986 4.22091 7.2099 4.03667H7.22013Z" fill="#FF4B00"/>
<path d="M11.3449 7.16884C17.4862 6.32954 19.1341 15.2548 13.2487 16.698C6.63661 18.3152 4.88636 8.04909 11.3449 7.16884ZM11.4677 8.90886C7.83416 9.49228 8.35616 15.3981 12.2968 15.1218C16.4524 14.8249 16.0123 8.18215 11.4677 8.90886Z" fill="#FF4B00"/>
<path d="M16.9641 5.65393C18.827 5.24451 18.8884 8.49937 16.7389 7.82384C15.7973 7.52701 15.9201 5.88934 16.9641 5.65393Z" fill="#FF4B00"/>
</g>
<defs>
<clipPath id="clip0_161_1209">
<rect width="20" height="20" fill="white" transform="translate(2 2)"/>
</clipPath>
</defs>
</svg>
