<svg width="320" height="100" viewBox="0 0 320 100" fill="none" xmlns="http://www.w3.org/2000/svg">
<g clip-path="url(#clip0_1_18)">
<path d="M303.664 100C297.273 100 292.077 94.7999 292.077 88.4078C292.077 82.0156 297.276 76.8156 303.664 76.8156C310.052 76.8156 315.251 82.0156 315.251 88.4078C315.251 94.7999 310.052 100 303.664 100ZM303.664 79.372C298.682 79.372 294.628 83.4247 294.628 88.4078C294.628 93.3909 298.682 97.4458 303.664 97.4458C308.646 97.4458 312.699 93.3909 312.699 88.4078C312.699 83.4247 308.646 79.372 303.664 79.372Z" fill="#FB4408"/>
<path d="M304.283 89.2487H302.633V92.248H301.072V84.5989H304.824C305.361 84.6101 305.772 84.6749 306.061 84.7957C306.349 84.9165 306.593 85.0954 306.794 85.3302C306.96 85.5248 307.092 85.7373 307.19 85.9744C307.286 86.2092 307.335 86.4776 307.335 86.7795C307.335 87.1441 307.244 87.4997 307.06 87.8509C306.877 88.202 306.575 88.4503 306.152 88.5956C306.506 88.7366 306.756 88.9378 306.904 89.1995C307.051 89.4612 307.125 89.8593 307.125 90.3961V90.9105C307.125 91.2594 307.139 91.4965 307.165 91.6217C307.206 91.8186 307.304 91.9639 307.456 92.0579V92.2502H305.696C305.647 92.0802 305.614 91.9438 305.591 91.8409C305.551 91.6262 305.526 91.407 305.524 91.1811L305.513 90.4699C305.506 89.9823 305.417 89.658 305.245 89.4948C305.075 89.3315 304.753 89.251 304.283 89.251V89.2487ZM305.254 87.8576C305.571 87.7122 305.732 87.4259 305.732 86.9965C305.732 86.5335 305.578 86.2226 305.269 86.0616C305.097 85.9721 304.838 85.9274 304.491 85.9274H302.633V87.9828H304.444C304.804 87.9828 305.075 87.9426 305.254 87.8576Z" fill="#FB4408"/>
<path d="M281.437 54.8026C288.413 54.0371 293.448 47.7598 292.683 40.7819C291.918 33.8039 285.642 28.7677 278.666 29.5331C271.69 30.2986 266.655 36.5758 267.42 43.5538C268.186 50.5318 274.461 55.568 281.437 54.8026Z" fill="#FB4408"/>
<path d="M56.5663 54.8568C63.5843 54.8568 69.2735 49.1661 69.2735 42.1462C69.2735 35.1264 63.5843 29.4357 56.5663 29.4357C49.5483 29.4357 43.8591 35.1264 43.8591 42.1462C43.8591 49.1661 49.5483 54.8568 56.5663 54.8568Z" fill="#FB4408"/>
<path d="M317.285 25.6514C315.45 20.5498 312.764 16.1057 309.307 12.4399C305.83 8.75623 301.551 5.85762 296.585 3.8268C291.67 1.81611 286.1 0.796225 280.027 0.796225C274.909 0.796225 269.927 1.61034 265.218 3.21397C262.528 4.12874 258.269 6.4615 256.2 7.63347C255.424 8.07184 254.691 8.57283 254 9.13422L223.792 33.6763V19.5343C223.792 16.5172 223.157 13.7975 221.907 11.4446C220.688 9.15211 219.034 7.22641 216.988 5.72119C215.054 4.30096 212.831 3.23187 210.376 2.543C208.048 1.88992 205.636 1.5589 203.205 1.5589C199.817 1.5589 196.468 2.07779 193.246 3.10438C191.471 3.67024 189.825 4.37924 188.313 5.21796L188.302 5.20901L188.179 5.29176C187.139 5.87551 186.162 6.52189 185.259 7.23088L185.216 7.26443L183.014 8.73163C182.057 7.29351 180.968 6.0276 179.765 4.97864C177.69 3.16477 175.351 1.85189 172.818 1.08027C170.468 0.364564 168.158 0 165.953 0C163.214 0 160.618 0.389166 158.241 1.15855C156.766 1.63494 155.397 2.27908 154.141 3.07083L154.129 3.06189L131.224 18.3109C131.074 15.7814 130.457 13.4777 129.377 11.4491C128.158 9.15658 126.504 7.23088 124.458 5.72566C122.524 4.30543 120.301 3.23634 117.846 2.54747C115.518 1.89439 113.106 1.56337 110.675 1.56337C107.288 1.56337 103.938 2.08226 100.716 3.10885C97.6616 4.08177 94.9739 5.46845 92.729 7.23312L90.5265 8.96424V8.96871L90.5176 8.962L85.7772 12.3996C82.3092 8.73834 78.0452 5.85538 73.0992 3.83127C68.1844 1.82058 62.6146 0.800698 56.5416 0.800698C51.4234 0.800698 46.502 1.80716 41.7326 3.21845C33.7658 5.57581 15.2025 22.8803 11.7099 26.7406C8.45877 30.3348 5.28366 34.2377 3.17288 39.2252C1.06657 44.1927 0 50.1152 0 56.8294C0 61.3428 0.489683 65.5096 1.4534 69.2156C2.42605 72.953 3.81684 76.3436 5.58328 79.2892C7.35866 82.2482 9.49627 84.8561 11.9357 87.0367C14.3506 89.1973 17.0338 91.0134 19.9093 92.4314C22.7602 93.8382 25.8257 94.8961 29.0277 95.5805C32.1916 96.256 35.4361 96.5982 38.6693 96.5982C43.8546 96.5982 48.7872 95.8332 53.3307 94.328C57.9816 92.7848 62.0981 90.3424 65.5661 87.0681C67.3012 85.4309 68.6965 85.1155 71.2567 87.6764C72.9874 89.4075 75.0579 91.4048 76.4845 92.7266C79.2772 95.3166 84.7733 94.9073 89.4264 94.9073H128.415C129.674 94.9073 130.759 94.6165 131.485 94.3526C132.109 94.1245 132.639 93.7062 133.008 93.1538C133.402 92.5656 133.766 91.9259 134.097 91.2415C134.097 91.2393 134.097 91.2326 134.099 91.2303C134.135 91.1946 134.173 91.161 134.209 91.1252C135.537 89.8258 137.619 89.7184 138.981 90.9821L139.086 91.0783C140.49 92.3822 142.147 93.3596 144.036 94.0104C144.731 94.3325 145.445 94.6121 146.176 94.8357C148.345 95.4977 150.471 95.8332 152.493 95.8332C155.03 95.8332 157.427 95.4754 159.619 94.7664C161.922 94.0216 163.945 92.8429 165.629 91.2684C165.712 91.1901 165.795 91.1118 165.875 91.0335C167.208 89.7251 169.336 89.7072 170.705 90.9776L170.734 91.0045C173.527 93.5944 177.301 94.9073 181.956 94.9073H220.945C222.236 94.9073 223.454 94.3124 224.248 93.2925C224.785 92.6036 228.221 87.9515 229.677 85.82C230.238 84.997 231.305 84.6548 232.217 85.0507C232.707 85.2631 233.19 85.6299 233.702 86.113C236.403 88.6605 239.506 90.6913 242.939 92.1966C243.091 92.2726 243.243 92.3531 243.395 92.4292C246.246 93.836 249.311 94.8939 252.513 95.5783C255.677 96.2537 258.922 96.5959 262.155 96.5959C267.34 96.5959 272.27 95.831 276.816 94.3258C277.619 94.0596 288.546 87.5288 288.546 87.5288C296.135 82.6441 304.42 76.7663 304.451 76.6679C305.815 75.7174 307.112 74.6774 308.328 73.53C311.971 70.0946 314.866 65.693 316.934 60.4504C318.967 55.2996 319.998 49.14 319.998 42.1418C319.998 36.2036 319.083 30.6546 317.283 25.6492L317.285 25.6514ZM88.0893 58.3391C86.334 62.7877 83.9124 66.4892 80.8894 69.3386C77.8685 72.1903 74.2731 74.3195 70.208 75.6704C66.0893 77.037 61.6017 77.7281 56.8658 77.7281C53.9255 77.7281 50.974 77.4172 48.0963 76.8021C45.2364 76.1915 42.4973 75.2455 39.9572 73.993C37.4216 72.7427 35.0559 71.1413 32.9228 69.2335C30.7964 67.3324 28.9293 65.0511 27.3686 62.4522C25.8056 59.8466 24.5714 56.8272 23.6993 53.4768C22.825 50.1152 22.3801 46.3018 22.3801 42.1462C22.3801 35.9956 23.3348 30.6211 25.2176 26.1748C27.098 21.7351 29.6314 18.0179 32.7484 15.126C35.8676 12.2319 39.5145 10.0602 43.5863 8.67572C47.696 7.27561 52.054 6.56662 56.5394 6.56662C61.861 6.56662 66.6975 7.44112 70.9146 9.16777C75.116 10.8855 78.7182 13.3189 81.6272 16.4009C84.5385 19.4874 86.8103 23.2583 88.3755 27.6084C89.9519 31.9877 90.7501 36.8791 90.7501 42.1485C90.7501 48.4199 89.8557 53.8682 88.0893 58.3413V58.3391ZM149.827 67.1535C149.637 68.4485 149.367 69.6987 149.022 70.8685C148.68 72.0315 148.267 73.1185 147.793 74.1026C147.788 74.1093 147.786 74.1182 147.781 74.1249C147.209 75.3059 145.993 76.0372 144.68 76.0372H107.623C104.059 76.0372 101.239 75.1001 99.2469 73.2527C97.2814 71.4298 96.2864 68.4597 96.2864 64.4249V11.7644C97.988 10.427 100.063 9.36235 102.462 8.59967C105.119 7.75424 107.882 7.32706 110.675 7.32706C112.578 7.32706 114.467 7.5865 116.29 8.09644C118.072 8.59744 119.673 9.36235 121.043 10.3688C122.385 11.3574 123.478 12.63 124.288 14.1554C125.091 15.665 125.497 17.4767 125.497 19.5388V48.1895C124.865 48.2946 124.205 48.4422 123.53 48.6301C122.425 48.941 121.379 49.3346 120.424 49.8043C119.436 50.2874 118.588 50.8376 117.904 51.4392C117.016 52.2198 116.565 53.0876 116.565 54.0203C116.565 54.736 116.77 55.3398 117.168 55.8095C117.452 56.1473 117.803 56.447 118.21 56.7019L119.011 57.2007L119.733 56.5946C121.605 55.0223 123.776 53.9196 126.184 53.318C128.684 52.694 131.62 52.3764 134.909 52.3764H144.814C146.245 52.3764 147.535 53.233 148.09 54.5526C148.501 55.53 148.859 56.5454 149.154 57.5675C149.447 58.5874 149.684 59.6117 149.856 60.616C150.024 61.5933 150.111 62.5103 150.111 63.3379C150.111 64.5725 150.015 65.8563 149.825 67.1535H149.827ZM185.14 63.1209C185.14 65.7534 184.778 68.0392 184.063 69.9112C183.363 71.7452 182.374 73.2661 181.127 74.4336C179.872 75.6056 178.352 76.4868 176.608 77.0526C174.806 77.6341 172.807 77.9294 170.669 77.9294C169.035 77.9294 167.29 77.6498 165.486 77.0996C163.735 76.5651 162.107 75.6503 160.65 74.3754C159.194 73.1051 157.964 71.365 156.996 69.2022C156.026 67.0417 155.534 64.2683 155.534 60.9582V52.902C155.534 52.7834 155.527 33.3743 155.527 33.3743C155.527 30.7039 155.23 28.3666 154.639 26.4253C154.062 24.5197 153.002 22.9966 151.486 21.8872C151.484 21.7776 151.482 21.6636 151.482 21.5428V20.5744C151.482 17.9419 151.844 15.6561 152.56 13.7841C153.26 11.9501 154.248 10.4292 155.496 9.2617C156.75 8.08973 158.27 7.20852 160.015 6.64266C161.817 6.06115 163.816 5.76592 165.953 5.76592C167.588 5.76592 169.332 6.04549 171.136 6.59569C172.887 7.13024 174.515 8.045 175.973 9.31985C176.899 10.1295 177.733 11.1293 178.468 12.3079C180.1 14.4595 181.069 17.1412 181.069 20.051C181.069 20.3418 181.055 20.6325 181.037 20.9188C181.073 21.5048 181.091 22.1109 181.091 22.7371L181.098 50.321C181.098 52.9914 181.395 55.3287 181.985 57.27C182.562 59.1756 183.622 60.6987 185.138 61.8081C185.143 61.9176 185.143 62.0317 185.143 62.1525V63.1209H185.14ZM242.357 67.1535C242.167 68.4485 241.897 69.6987 241.552 70.8685C241.21 72.0315 240.797 73.1185 240.323 74.1026C240.318 74.1093 240.316 74.1182 240.311 74.1249C239.739 75.3059 238.523 76.0372 237.21 76.0372H200.153C196.586 76.0372 193.769 75.1001 191.777 73.2527C189.811 71.4298 188.816 68.4597 188.816 64.4249V11.7644C190.518 10.427 192.593 9.36235 194.992 8.59967C197.649 7.75424 200.412 7.32706 203.205 7.32706C205.108 7.32706 206.997 7.5865 208.82 8.09644C210.604 8.59744 212.203 9.36235 213.573 10.3688C214.915 11.3574 216.008 12.63 216.818 14.1554C217.62 15.665 218.027 17.4767 218.027 19.5388V48.1895C217.395 48.2946 216.735 48.4422 216.06 48.6301C214.955 48.941 213.909 49.3346 212.954 49.8043C211.966 50.2874 211.118 50.8376 210.434 51.4392C209.546 52.2198 209.095 53.0876 209.095 54.0203C209.095 54.736 209.3 55.3398 209.698 55.8095C209.982 56.1473 210.333 56.447 210.74 56.7019L211.539 57.2007L212.261 56.5946C214.132 55.0223 216.303 53.9196 218.712 53.318C221.211 52.694 224.147 52.3764 227.436 52.3764H237.326C238.751 52.3764 240.056 53.2151 240.609 54.5302C240.611 54.5369 240.615 54.5459 240.618 54.5526C241.029 55.53 241.387 56.5454 241.682 57.5675C241.975 58.5874 242.212 59.6117 242.384 60.616C242.552 61.5933 242.639 62.5103 242.639 63.3379C242.639 64.5725 242.543 65.8563 242.353 67.1535H242.357ZM311.577 58.3391C309.822 62.7877 307.4 66.4892 304.377 69.3386C301.356 72.1903 297.761 74.3195 293.696 75.6704C289.577 77.037 285.089 77.7281 280.354 77.7281C277.413 77.7281 274.462 77.4172 271.584 76.8021C268.724 76.1915 265.985 75.2455 263.445 73.993C260.909 72.7427 258.544 71.1413 256.411 69.2335C254.284 67.3324 252.417 65.0511 250.856 62.4522C249.293 59.8466 248.059 56.8272 247.187 53.4768C246.313 50.1152 245.868 46.3018 245.868 42.1462C245.868 35.9956 246.823 30.6211 248.705 26.1748C250.586 21.7351 253.119 18.0179 256.236 15.126C259.355 12.2319 263.002 10.0602 267.074 8.67572C271.184 7.27561 275.542 6.56662 280.027 6.56662C285.349 6.56662 290.185 7.44112 294.402 9.16777C298.604 10.8855 302.206 13.3189 305.115 16.4009C308.026 19.4874 310.298 23.2583 311.863 27.6084C313.44 31.9877 314.238 36.8791 314.238 42.1485C314.238 48.4199 313.343 53.8682 311.577 58.3413V58.3391Z" fill="#FB4408"/>
<path d="M149.156 57.5943C148.861 56.5722 148.504 55.5568 148.092 54.5794C147.538 53.2621 146.245 52.4032 144.816 52.4032H134.911C131.62 52.4032 128.684 52.7208 126.184 53.3448C123.776 53.9465 121.605 55.0491 119.733 56.6214L119.011 57.2275L118.21 56.7288C117.803 56.4738 117.452 56.1741 117.168 55.8364C116.768 55.3667 116.565 54.7628 116.565 54.0471C116.565 53.1167 117.016 52.2467 117.904 51.4661C118.588 50.8644 119.436 50.3142 120.424 49.8311C121.379 49.3637 122.425 48.9678 123.53 48.6569C124.205 48.4668 124.862 48.3192 125.497 48.2163V19.5634C125.497 17.5013 125.09 15.6896 124.288 14.18C123.476 12.6546 122.385 11.382 121.043 10.3934C119.673 9.38471 118.072 8.6198 116.29 8.12104C114.467 7.6111 112.58 7.35165 110.675 7.35165C107.882 7.35165 105.121 7.78108 102.462 8.62427C100.063 9.38918 97.988 10.4516 96.2864 11.789V64.4517C96.2864 68.4865 97.2836 71.4567 99.2468 73.2795C101.239 75.1269 104.059 76.0641 107.623 76.0641H144.68C145.993 76.0641 147.209 75.3327 147.781 74.1518C147.786 74.1451 147.788 74.1361 147.793 74.1294C148.267 73.1453 148.682 72.0561 149.022 70.8953C149.367 69.7256 149.637 68.4753 149.827 67.1803C150.017 65.8809 150.113 64.5971 150.113 63.3647C150.113 62.5372 150.029 61.6224 149.859 60.6428C149.686 59.6408 149.449 58.6142 149.156 57.5943Z" fill="#FFFFFF"/>
<path d="M241.687 57.5943C241.391 56.5722 241.034 55.5568 240.622 54.5794C240.62 54.5727 240.615 54.5638 240.613 54.557C240.059 53.2442 238.755 52.4032 237.331 52.4032H227.441C224.15 52.4032 221.214 52.7208 218.714 53.3448C216.306 53.9465 214.135 55.0491 212.263 56.6214L211.541 57.2275L210.74 56.7288C210.333 56.4738 209.982 56.1741 209.698 55.8364C209.298 55.3667 209.095 54.7628 209.095 54.0471C209.095 53.1167 209.546 52.2467 210.434 51.4661C211.118 50.8644 211.966 50.3142 212.954 49.8311C213.909 49.3637 214.955 48.9678 216.06 48.6569C216.735 48.4668 217.392 48.3192 218.027 48.2163V19.5634C218.027 17.5013 217.62 15.6896 216.818 14.18C216.006 12.6546 214.915 11.382 213.573 10.3934C212.203 9.38471 210.602 8.6198 208.82 8.12104C206.997 7.6111 205.11 7.35165 203.205 7.35165C200.412 7.35165 197.651 7.78108 194.992 8.62427C192.593 9.38918 190.518 10.4516 188.816 11.789V64.4517C188.816 68.4865 189.814 71.4567 191.777 73.2795C193.769 75.1269 196.589 76.0641 200.153 76.0641H237.21C238.523 76.0641 239.739 75.3327 240.311 74.1518C240.316 74.1451 240.318 74.1361 240.323 74.1294C240.797 73.1453 241.212 72.0561 241.552 70.8953C241.897 69.7256 242.167 68.4753 242.357 67.1803C242.547 65.8809 242.644 64.5971 242.644 63.3647C242.644 62.5372 242.559 61.6224 242.389 60.6428C242.216 59.6408 241.979 58.6142 241.687 57.5943Z" fill="#FFFFFF"/>
<path d="M88.3755 27.6308C86.8103 23.2806 84.5386 19.5097 81.6273 16.4233C78.7183 13.3412 75.1138 10.9078 70.9146 9.19013C66.6953 7.46572 61.8589 6.58898 56.5394 6.58898C52.0563 6.58898 47.6983 7.29798 43.5863 8.69808C39.5146 10.0848 35.8699 12.2543 32.7484 15.1484C29.6315 18.0403 27.0981 21.7575 25.2176 26.1971C23.3349 30.6457 22.3801 36.0202 22.3801 42.1686C22.3801 46.3264 22.8229 50.1375 23.6994 53.4991C24.5714 56.8495 25.8057 59.8689 27.3686 62.4746C28.9271 65.0735 30.7964 67.3548 32.9228 69.2559C35.056 71.1637 37.4217 72.7651 39.9573 74.0153C42.4974 75.2678 45.2365 76.2139 48.0963 76.8245C50.974 77.4373 53.9256 77.7504 56.8659 77.7504C61.6017 77.7504 66.0916 77.0571 70.2081 75.6928C74.2753 74.3419 77.8686 72.2127 80.8894 69.361C83.9102 66.5094 86.3341 62.8078 88.0893 58.3615C89.8558 53.8861 90.7502 48.4377 90.7502 42.1686C90.7502 36.8992 89.9519 32.0055 88.3755 27.6285V27.6308ZM56.5663 54.8814C49.5475 54.8814 43.8591 49.1915 43.8591 42.1708C43.8591 35.1502 49.5475 29.4603 56.5663 29.4603C63.585 29.4603 69.2734 35.1502 69.2734 42.1708C69.2734 49.1915 63.585 54.8814 56.5663 54.8814Z" fill="#FFFFFF"/>
<path d="M311.863 27.6308C310.298 23.2806 308.026 19.5097 305.115 16.4233C302.206 13.3412 298.602 10.9078 294.402 9.19013C290.183 7.46572 285.347 6.58898 280.027 6.58898C275.544 6.58898 271.186 7.29798 267.074 8.69808C263.002 10.0848 259.358 12.2543 256.236 15.1484C253.119 18.0403 250.586 21.7575 248.705 26.1971C246.823 30.6457 245.868 36.0202 245.868 42.1686C245.868 46.3264 246.311 50.1375 247.187 53.4991C248.059 56.8495 249.293 59.8689 250.856 62.4746C252.415 65.0735 254.284 67.3548 256.411 69.2559C258.544 71.1637 260.909 72.7651 263.445 74.0153C265.985 75.2678 268.724 76.2139 271.584 76.8245C274.462 77.4373 277.413 77.7504 280.354 77.7504C285.09 77.7504 289.579 77.0571 293.696 75.6928C297.763 74.3419 301.356 72.2127 304.377 69.361C307.398 66.5094 309.822 62.8078 311.577 58.3615C313.344 53.8861 314.238 48.4377 314.238 42.1686C314.238 36.8992 313.44 32.0055 311.863 27.6285V27.6308ZM280.052 54.8814C273.033 54.8814 267.345 49.1915 267.345 42.1708C267.345 35.1502 273.033 29.4603 280.052 29.4603C287.071 29.4603 292.759 35.1502 292.759 42.1708C292.759 49.1915 287.071 54.8814 280.052 54.8814Z" fill="#FFFFFF"/>
<path d="M185.134 61.8327C183.618 60.7233 182.558 59.2002 181.981 57.2946C181.393 55.3533 181.093 53.0138 181.093 50.3456L181.087 22.7617C181.087 22.1355 181.069 21.5294 181.033 20.9434C181.053 20.6571 181.066 20.3686 181.066 20.0756C181.066 17.1658 180.096 14.4841 178.466 12.3325C177.733 11.1561 176.899 10.1541 175.971 9.34446C174.513 8.0696 172.887 7.1526 171.134 6.62029C169.33 6.07009 167.586 5.79052 165.951 5.79052C163.813 5.79052 161.815 6.08575 160.012 6.66726C158.268 7.23312 156.748 8.11433 155.493 9.2863C154.246 10.4516 153.257 11.9747 152.557 13.8087C151.842 15.6807 151.48 17.9665 151.48 20.599V21.5674C151.48 21.6882 151.48 21.8045 151.484 21.9118C153 23.0212 154.06 24.5443 154.637 26.4499C155.225 28.3912 155.525 30.7307 155.525 33.3989C155.525 33.3989 155.529 52.808 155.531 52.9266V60.9828C155.531 64.2907 156.023 67.064 156.994 69.2268C157.962 71.3874 159.192 73.1274 160.647 74.4C162.105 75.6749 163.731 76.5919 165.484 77.1242C167.288 77.6744 169.032 77.954 170.667 77.954C172.804 77.954 174.803 77.6587 176.606 77.0772C178.35 76.5114 179.87 75.6302 181.125 74.4582C182.372 73.2929 183.361 71.7698 184.06 69.9358C184.776 68.0638 185.138 65.778 185.138 63.1455V62.1771C185.138 62.0563 185.138 61.94 185.134 61.8327Z" fill="#FFFFFF"/>
</g>
<defs>
<clipPath id="clip0_1_18">
<rect width="320" height="100" fill="white"/>
</clipPath>
</defs>
</svg>
