<svg xmlns="http://www.w3.org/2000/svg" viewBox="0 0 130 180" fill="#FB4408">
  <!-- Large 4-pointed spark with hollow center -->
  <path fill-rule="evenodd" clip-rule="evenodd"
    d="M52 2 C50 26 65 42 44 58 C23 74 5 66 4 88 C3 110 20 120 36 126
       C52 132 55 150 56 172 C57 150 60 132 76 126 C92 120 109 110 108 88
       C107 66 89 74 68 58 C47 42 62 26 52 2 Z
       M52 66 C47 74 49 83 56 87 C63 91 71 86 72 78 C73 70 67 62 59 63
       C54 63 54 60 52 66 Z"/>
  <!-- Small rounded plus -->
  <path d="M95 128 C91 128 88 131 88 135 L88 140 C85 140 83 138 83 135
           C83 131 80 128 76 128 C72 128 69 131 69 135 C69 139 72 142 76 142
           L81 142 L81 147 C81 151 84 154 88 154 C92 154 95 151 95 147 L95 142
           L100 142 C104 142 107 139 107 135 C107 131 104 128 100 128
           C96 128 93 131 93 135 C93 138 91 140 88 140 L88 135 C88 131 91 128 95 128 Z"/>
</svg>
